<?xml version="1.0" encoding="iso-8859-1"?>
<!-- Generator: Adobe Illustrator 16.0.0, SVG Export Plug-In . SVG Version: 6.00 Build 0)  -->
<!DOCTYPE svg PUBLIC "-//W3C//DTD SVG 1.1//EN" "http://www.w3.org/Graphics/SVG/1.1/DTD/svg11.dtd">
<svg version="1.1" id="Capa_1" xmlns="http://www.w3.org/2000/svg" xmlns:xlink="http://www.w3.org/1999/xlink" x="0px" y="0px"
	 width="376.202px" height="376.201px" viewBox="0 0 376.202 376.201" style="enable-background:new 0 0 376.202 376.201;"
	 xml:space="preserve">
<g>
	<g>
		<path d="M63.703,319.276c7.973,0.89,15.362-2.686,19.771-9.193c1.985-2.945,4.186-5.643,6.317-8.403
			c14.036,8.327,27.146,18.049,38.363,30.484c5.55,6.163,34.031-4.549,28.473-10.704c-14.513-16.094-32.229-27.715-51.05-37.598
			c7.582-7.321,15.823-13.981,24.8-20.069c5.244-3.542,7.859-11.225,1.725-15.324c-6.516-4.364-15.701-2.147-21.726,1.924
			c-10.021,6.793-19.013,14.343-27.377,22.493c-5.428-2.484-10.872-4.921-16.29-7.337c-7.053-3.134-34.814,7.986-24.734,12.475
			c8.526,3.787,17.036,7.626,25.415,11.689c-4.484,5.459-8.778,11.141-12.842,17.148C50.177,313.309,58.304,318.671,63.703,319.276z
			"/>
		<path d="M185.26,169.521c0.247-0.713,0.521-1.415,0.797-2.12c0.591-1.515,1.289-2.989,2.008-4.442
			c0.806-1.619,1.711-3.186,2.631-4.735c0.114-0.202,0.537-0.848,0.806-1.288c0.627-0.928,1.272-1.844,1.924-2.755
			c0.659-0.902,1.34-1.792,2.021-2.677c4.288-5.556,3.037-12.247-3.939-14.711c-6.891-2.435-16.849-0.202-21.442,5.747
			c-9.421,12.239-17.641,26.157-16.284,42.088c0.914,10.708,9.546,18.495,18.937,22.313c19.695,8.02,54.355-1.555,55.068-26.729
			c0.261-9.275-3.896-17.771-9.125-25.199c-7.942-11.269-36.836,0.479-27.759,13.363c0.936,1.34,1.833,2.709,2.691,4.105
			c0.383,0.635,0.735,1.287,1.096,1.932c1.09,2.364,1.88,4.867,2.309,7.432c0.032,0.201,0.052,0.277,0.076,0.419
			c0,0.096-0.008,0.118-0.008,0.241c0,0.943-0.116,1.879-0.261,2.805c-0.017,0.092-0.017,0.116-0.024,0.197
			c-0.188,0.487-0.465,0.944-0.717,1.406c-0.049,0.054-0.088,0.117-0.133,0.168c-0.107,0.058-0.22,0.104-0.32,0.154
			c-0.056,0.014-0.108,0.03-0.168,0.046c-0.485,0.046-0.977,0.084-1.467,0.106c-0.093-0.006-0.114-0.014-0.229-0.022
			c-0.537-0.046-1.074-0.156-1.619-0.243c-0.229-0.064-0.451-0.118-0.627-0.178c-0.575-0.192-1.145-0.441-1.711-0.675
			c-0.314-0.192-0.635-0.381-0.942-0.583c-0.444-0.299-0.852-0.651-1.272-0.982c-0.277-0.283-0.575-0.581-0.759-0.807
			c-0.529-0.638-0.966-1.327-1.389-2.026c-0.13-0.321-0.269-0.643-0.375-0.972c-0.322-0.936-0.537-1.901-0.721-2.875
			c-0.054-0.272-0.076-0.557-0.106-0.832C184.164,174.614,184.617,172.031,185.26,169.521
			C185.26,169.526,185.26,169.526,185.26,169.521z M185.137,181.453C184.777,180.793,184.416,179.946,185.137,181.453
			L185.137,181.453z M184.202,177.443C184.416,179.489,184.24,178.267,184.202,177.443L184.202,177.443z"/>
		<path d="M272.995,375.701c11.981-1.367,23.575-5.827,34.075-11.63c12.09-6.688,25.884-17.865,28.85-32.155
			c3.51-16.904-12.648-27.92-26.133-33.606c-6.717-2.829-15.473-0.754-21.468,2.865c-1.074,0.653-2.284,1.655-3.326,2.813
			c0.377-0.598,0.733-1.211,1.126-1.808c3.863-6.02-3.258-8.681-8.18-8.78c-6.58-0.137-16.197,2.292-20.041,8.251
			c-8.6,13.36-17.5,28.204-20.489,44.042c-1.56,8.243-1.046,18.102,5.83,23.936C251.306,376.49,262.976,376.843,272.995,375.701z
			 M267.208,345.381c0.137-1.604,0.421-3.198,0.741-4.785c0.729-3.61,1.904-7.129,3.206-10.58c1.863-4.913,3.082-7.313,5.282-11.493
			c1.972-3.747,4.14-7.397,6.363-11.008c-0.689,2.056-0.232,4.087,2.813,5.374c2.85,1.202,5.643,2.536,8.339,4.079
			c0.385,0.213,1.848,1.179,2.433,1.539c0.958,0.697,1.892,1.427,2.781,2.2c1.571,1.374,2.99,2.93,4.208,4.624
			c0.217,0.285,0.361,0.485,0.469,0.613c0.04,0.084,0.076,0.16,0.152,0.312c0.477,0.897,0.838,1.844,1.15,2.802
			c0.453,1.378,0.621,2.829,0.713,4.283c-0.016,0.445-0.031,0.982-0.06,1.242c-0.124,0.95-0.329,1.888-0.585,2.806
			c-0.213,0.821-0.497,1.603-0.81,2.385c-0.072,0.16-0.084,0.224-0.133,0.328c-0.036,0.084-0.06,0.108-0.116,0.217
			c-0.926,1.755-2.075,3.382-3.277,4.945c-0.217,0.276-0.662,0.781-1.022,1.202c-0.437,0.437-0.85,0.873-1.286,1.302
			c-1.571,1.511-3.25,2.901-4.97,4.22c-0.12,0.076-0.168,0.104-0.32,0.205c-0.882,0.601-1.787,1.166-2.692,1.719
			c-0.895,0.553-1.824,1.082-2.766,1.596c-0.156,0.092-0.316,0.168-0.469,0.252c-1.756,0.834-3.551,1.571-5.374,2.252
			c-1.018,0.309-2.048,0.594-3.073,0.846c-0.706,0.108-1.411,0.213-2.108,0.297c-0.613,0.008-1.234-0.008-1.848-0.036
			c-0.168-0.032-0.345-0.048-0.509-0.076c-0.305-0.057-0.605-0.133-0.901-0.209c-0.686-0.269-1.343-0.581-1.988-0.925
			c-0.228-0.193-0.46-0.369-0.681-0.569c-0.638-0.562-1.19-1.21-1.703-1.88c-0.145-0.176-0.229-0.284-0.305-0.368
			c-0.064-0.161-0.16-0.405-0.309-0.741c-0.95-2.156-1.318-4.525-1.447-6.861c0-0.056,0-0.16,0-0.24
			C267.124,346.615,267.16,346.002,267.208,345.381z"/>
		<path d="M162.101,290.258c45.973-4.095,89.834-19.211,117.024-58.447c29.463-42.527,24.534-102.899,17.85-151.221
			c-1.227-8.9-31.747-2.112-30.328,8.127c11.613,83.95,3.121,177.437-99.924,186.59
			C152.639,276.557,140.942,292.138,162.101,290.258z"/>
		<path d="M210.803,14.106c9.77,4.929,19.275,10.231,28.513,15.941c-3.587,3.168-7.137,6.376-10.556,9.73
			c-5.189,5.102-2.284,12.561,3.964,14.781c7.649,2.717,15.913-0.314,21.447-5.747c1.751-1.717,3.583-3.35,5.382-5.017
			c2.709,1.978,5.431,3.909,8.075,5.991c7.306,5.761,34.66-6.053,28.396-10.982c-5.498-4.324-11.156-8.359-16.899-12.254
			c4.004-3.493,7.951-7.033,11.738-10.756c5.197-5.102,2.284-12.562-3.964-14.782c-7.642-2.717-15.913,0.315-21.436,5.747
			c-2.36,2.314-4.805,4.539-7.258,6.751c-7.461-4.316-15.035-8.488-22.786-12.394C228.107-2.574,200.08,8.69,210.803,14.106z"/>
	</g>
</g>
<g>
</g>
<g>
</g>
<g>
</g>
<g>
</g>
<g>
</g>
<g>
</g>
<g>
</g>
<g>
</g>
<g>
</g>
<g>
</g>
<g>
</g>
<g>
</g>
<g>
</g>
<g>
</g>
<g>
</g>
</svg>
