<?xml version="1.0" encoding="iso-8859-1"?>
<!-- Generator: Adobe Illustrator 19.0.0, SVG Export Plug-In . SVG Version: 6.00 Build 0)  -->
<svg xmlns="http://www.w3.org/2000/svg" xmlns:xlink="http://www.w3.org/1999/xlink" version="1.1" id="Layer_1" x="0px" y="0px" viewBox="0 0 512 512" style="enable-background:new 0 0 512 512;" xml:space="preserve" width="512" height="512">
<g id="XMLID_2_">
	<path id="XMLID_1894_" style="fill:#B8DAEF;" d="M265.021,163.189h-62.548v-33.604c0-4.268-3.459-7.726-7.726-7.726   s-7.726,3.459-7.726,7.726v33.604h-24.317v-33.604c0-4.268-3.459-7.726-7.726-7.726c-4.267,0-7.726,3.459-7.726,7.726v33.604   h-39.293c-4.267,0-7.726,3.459-7.726,7.726s3.459,7.726,7.726,7.726h39.293v20.163h-39.293c-4.267,0-7.726,3.459-7.726,7.726   s3.459,7.726,7.726,7.726h39.293v20.164h-39.293c-4.267,0-7.726,3.459-7.726,7.726s3.459,7.726,7.726,7.726h39.293v35.486   c0,4.268,3.459,7.726,7.726,7.726c4.267,0,7.726-3.459,7.726-7.726v-35.486h24.317v35.486c0,4.268,3.459,7.726,7.726,7.726   s7.726-3.459,7.726-7.726v-35.486h46.736c4.267,0,7.726-3.459,7.726-7.726s-3.459-7.726-7.726-7.726h-46.736v-20.164h46.736   c4.267,0,7.726-3.459,7.726-7.726s-3.459-7.726-7.726-7.726h-46.736v-20.163h62.548c4.267,0,7.726-3.459,7.726-7.726   S269.288,163.189,265.021,163.189z M187.02,234.422h-24.317v-20.164h24.317V234.422z M187.02,198.805h-24.317v-20.163h24.317   V198.805z"/>
	<g id="XMLID_914_">
		<g id="XMLID_917_">
			<path id="XMLID_1893_" style="fill:#37D0F5;" d="M115.895,282.911V150.485c0-8.128,6.589-14.718,14.718-14.718h178.476     c8.128,0,14.718,6.589,14.718,14.718v132.426c0,2.613,2.119,4.732,4.732,4.732H347.9c2.613,0,4.732-2.119,4.732-4.732V141.021     c0-18.821-15.258-34.079-34.079-34.079H121.149c-18.821,0-34.079,15.258-34.079,34.079v141.891c0,2.613,2.119,4.732,4.732,4.732     h19.361C113.777,287.643,115.895,285.525,115.895,282.911z"/>
		</g>
	</g>
	<path id="XMLID_1890_" style="fill:#5AC034;" d="M501.446,421.994H10.554c-7.703,0-12.805-7.993-9.562-14.98l55.704-120.001   c1.728-3.722,5.458-6.103,9.562-6.103h379.484c4.103,0,7.834,2.381,9.562,6.103l55.704,120.001   C514.251,414.001,509.149,421.994,501.446,421.994z"/>
	<ellipse id="XMLID_1889_" style="fill:#4DA32C;" cx="335.382" cy="371.335" rx="134.597" ry="23.399"/>
	<g id="XMLID_918_">
		<g id="XMLID_919_">
			<path id="XMLID_1886_" style="fill:#DEEFFF;" d="M505.375,232.104c0,14.67-2.219,28.826-6.361,42.142     c-6.334,20.476-17.187,38.962-31.383,54.309c-19.19,20.746-44.47,35.755-72.998,42.169c-10.082,2.274-20.584,3.478-31.356,3.478     c-10.772,0-21.274-1.204-31.356-3.478c-28.528-6.415-53.808-21.423-72.998-42.169c-14.196-15.347-25.05-33.833-31.383-54.309     c-4.141-13.317-6.361-27.472-6.361-42.142c0-14.67,2.219-28.826,6.361-42.142c6.334-20.476,17.187-38.962,31.383-54.309     c19.19-20.746,44.47-35.755,72.998-42.169c10.082-2.274,20.584-3.478,31.356-3.478c10.772,0,21.274,1.204,31.356,3.478     c28.528,6.415,53.808,21.423,72.998,42.169c14.196,15.347,25.05,33.833,31.383,54.309     C503.156,203.279,505.375,217.434,505.375,232.104z"/>
			<path id="XMLID_1883_" style="fill:#B8DAEF;" d="M363.277,374.196c-78.473,0-142.091-63.618-142.091-142.091     c0-8.522,0.754-16.846,2.189-24.956c11.787,66.578,69.951,117.154,139.902,117.154s128.115-50.575,139.903-117.154     c1.435,8.109,2.189,16.434,2.189,24.956C505.368,310.577,441.75,374.196,363.277,374.196z"/>
			<polygon id="XMLID_1880_" style="fill:#4E768E;" points="387.609,189.96 338.945,189.96 314.613,232.104 338.945,274.249      387.609,274.249 411.941,232.104    "/>
			<path id="XMLID_1877_" style="fill:#4E768E;" d="M505.376,232.1c0,14.67-2.225,28.835-6.356,42.145h-21.304l-2.565-4.45     L453.393,232.1l24.323-42.134h21.304c1.731,5.584,3.132,11.322,4.172,17.183C504.624,215.246,505.376,223.59,505.376,232.1z"/>
			<path id="XMLID_1874_" style="fill:#4E768E;" d="M273.163,232.1l-21.757,37.705l-2.565,4.44h-21.304     c-4.141-13.31-6.356-27.475-6.356-42.145c0-8.509,0.742-16.854,2.184-24.951c1.04-5.862,2.431-11.6,4.172-17.183h21.304     L273.163,232.1z"/>
			<path id="XMLID_1871_" style="fill:#4E768E;" d="M342.557,111.916l-24.333,42.156h-48.665l-10.637-18.419     c19.19-20.746,44.47-35.755,72.998-42.169L342.557,111.916z"/>
			<path id="XMLID_1868_" style="fill:#4E768E;" d="M467.63,328.556c-19.192,20.748-44.473,35.758-72.999,42.165L384,352.291     l19.491-33.769l4.842-8.386h48.666L467.63,328.556z"/>
			<path id="XMLID_1865_" style="fill:#4E768E;" d="M467.631,135.653l-10.637,18.419h-48.665l-24.333-42.156l10.637-18.432     C423.161,99.899,448.441,114.907,467.631,135.653z"/>
			<path id="XMLID_1852_" style="fill:#4E768E;" d="M342.556,352.291l-10.632,18.43c-28.536-6.408-53.817-21.417-72.999-42.165     l10.631-18.42h48.666l4.842,8.396L342.556,352.291z"/>
		</g>
	</g>
	<g id="XMLID_920_">
		<g id="XMLID_930_">
			<path id="XMLID_1612_" style="fill:#4DA32C;" d="M76.707,390.099c-3.721,0-7-2.695-7.617-6.487l-2.312-14.221     c-0.685-4.212,2.175-8.182,6.386-8.866c4.212-0.685,8.182,2.174,8.866,6.385l2.312,14.221c0.685,4.212-2.175,8.182-6.386,8.866     C77.537,390.065,77.119,390.099,76.707,390.099z"/>
		</g>
		<g id="XMLID_931_">
			<path id="XMLID_1604_" style="fill:#4DA32C;" d="M95.96,390.099c-0.412,0-0.829-0.033-1.249-0.102     c-4.212-0.684-7.071-4.654-6.386-8.866l2.312-14.221c0.685-4.212,4.656-7.07,8.866-6.385c4.212,0.684,7.071,4.654,6.386,8.866     l-2.312,14.221C102.96,387.403,99.681,390.099,95.96,390.099z"/>
		</g>
	</g>
	<g id="XMLID_932_">
		<g id="XMLID_933_">
			<path id="XMLID_1597_" style="fill:#4DA32C;" d="M157.28,344.055c-3.721,0-7-2.695-7.617-6.488l-2.312-14.222     c-0.685-4.211,2.175-8.181,6.386-8.865c4.216-0.687,8.181,2.173,8.866,6.386l2.312,14.222c0.685,4.211-2.175,8.181-6.386,8.865     C158.109,344.022,157.692,344.055,157.28,344.055z"/>
		</g>
		<g id="XMLID_934_">
			<path id="XMLID_1595_" style="fill:#4DA32C;" d="M176.532,344.055c-0.412,0-0.829-0.033-1.249-0.102     c-4.212-0.684-7.071-4.654-6.386-8.865l2.312-14.222c0.685-4.213,4.658-7.073,8.866-6.386c4.212,0.684,7.071,4.654,6.386,8.865     l-2.312,14.222C183.532,341.36,180.253,344.055,176.532,344.055z"/>
		</g>
	</g>
	<path id="XMLID_1586_" style="fill:#38627C;" d="M223.374,207.149c4.131,23.354,13.969,44.741,28.031,62.656l-2.565,4.44h-21.304   c-4.141-13.31-6.356-27.475-6.356-42.145c0-8.509,0.742-16.854,2.184-24.951H223.374z"/>
	<path id="XMLID_942_" style="fill:#38627C;" d="M323.065,318.532l19.491,33.759l-10.632,18.43   c-28.536-6.408-53.817-21.417-72.999-42.165l10.631-18.42h31.822C308.313,313.505,315.555,316.317,323.065,318.532z"/>
	<path id="XMLID_915_" style="fill:#38627C;" d="M456.999,310.136l10.631,18.42c-19.192,20.748-44.473,35.758-72.999,42.165   L384,352.291l19.491-33.769c7.51-2.205,14.752-5.017,21.675-8.386H456.999z"/>
	<path id="XMLID_867_" style="fill:#38627C;" d="M505.376,232.1c0,14.67-2.225,28.835-6.356,42.145h-21.304l-2.565-4.45   c14.062-17.915,23.9-39.291,28.031-62.645h0.01C504.624,215.246,505.376,223.59,505.376,232.1z"/>
</g>















</svg>
