<?xml version="1.0" encoding="iso-8859-1"?>
<!-- Generator: Adobe Illustrator 19.0.0, SVG Export Plug-In . SVG Version: 6.00 Build 0)  -->
<svg version="1.1" id="Capa_1" xmlns="http://www.w3.org/2000/svg" xmlns:xlink="http://www.w3.org/1999/xlink" x="0px" y="0px"
	 viewBox="0 0 511.976 511.976" style="enable-background:new 0 0 511.976 511.976;" xml:space="preserve">
<g>
	<g>
		<path d="M504.852,114.676l-96-64c-0.416-0.288-0.896-0.32-1.312-0.544c-0.96-0.544-1.952-0.928-3.008-1.248
			c-1.056-0.32-2.08-0.544-3.136-0.64c-0.512-0.032-0.928-0.256-1.408-0.256h-57.376L315.316,20.66
			c-3.008-2.976-7.072-4.672-11.328-4.672h-96c-4.256,0-8.32,1.696-11.328,4.672l-27.296,27.328h-57.376
			c-0.48,0-0.896,0.224-1.408,0.288c-1.088,0.096-2.112,0.32-3.168,0.64c-1.056,0.32-2.016,0.704-2.976,1.216
			c-0.416,0.224-0.896,0.256-1.312,0.544l-96,64c-6.016,4-8.576,11.52-6.304,18.368l32,96c1.44,4.384,4.768,7.936,9.056,9.728
			c4.288,1.76,9.12,1.6,13.28-0.48l40.832-20.416v262.112c0,8.832,7.168,16,16,16h288c8.832,0,16-7.168,16-16V217.876l40.832,20.416
			c4.16,2.048,8.992,2.24,13.28,0.48c4.288-1.792,7.584-5.344,9.056-9.728l32-96C513.428,126.196,510.868,118.676,504.852,114.676z
			 M214.612,47.988h82.752l14.656,14.656l-56.032,44.864l-56.032-44.864L214.612,47.988z M454.644,201.428l-47.488-23.744
			c-4.96-2.464-10.848-2.24-15.552,0.704c-4.736,2.912-7.616,8.064-7.616,13.6v272h-256v-272c0-5.536-2.88-10.688-7.584-13.6
			c-4.736-2.976-10.624-3.2-15.552-0.704l-47.52,23.744l-22.304-66.912l81.792-54.528h53.536l75.616,60.512
			c2.944,2.304,6.496,3.488,10.016,3.488s7.072-1.184,10.016-3.488l75.616-60.512h53.536l81.792,54.528L454.644,201.428z"/>
	</g>
</g>
<g>
	<g>
		<path d="M335.988,239.988h-64c-8.832,0-16,7.168-16,16v128c0,8.832,7.168,16,16,16h64c8.832,0,16-7.168,16-16v-128
			C351.988,247.156,344.82,239.988,335.988,239.988z M319.988,367.988h-32v-96h32V367.988z"/>
	</g>
</g>
<g>
	<g>
		<path d="M207.988,239.988h-32c-8.832,0-16,7.136-16,15.968c0,8.832,7.136,16,16,16.032h16v112c0,8.832,7.168,16,16,16
			c8.832,0,16-7.168,16-16v-128C223.988,247.156,216.82,239.988,207.988,239.988z"/>
	</g>
</g>
<g>
</g>
<g>
</g>
<g>
</g>
<g>
</g>
<g>
</g>
<g>
</g>
<g>
</g>
<g>
</g>
<g>
</g>
<g>
</g>
<g>
</g>
<g>
</g>
<g>
</g>
<g>
</g>
<g>
</g>
</svg>
