<svg height="512pt" viewBox="0 0 512 512" width="512pt" xmlns="http://www.w3.org/2000/svg"><path d="m512 256c0 44.679688-11.441406 86.683594-31.566406 123.246094-6.761719 12.285156-14.503906 23.957031-23.113282 34.910156-46.875 59.578125-119.632812 97.84375-201.320312 97.84375-17.859375 0-35.296875-1.828125-52.121094-5.308594-22.496094-4.648437-43.90625-12.246094-63.8125-22.382812-24.28125-12.359375-46.339844-28.484375-65.386718-47.59375-9.3125-9.34375-17.910157-19.394532-25.695313-30.082032-5.496094-7.523437-10.574219-15.371093-15.234375-23.492187-21.472656-37.457031-33.75-80.875-33.75-127.140625 0-141.386719 114.613281-256 256-256 7.4375 0 14.804688.3125 22.089844.941406 14.117187 1.199219 27.898437 3.550782 41.261718 6.957032 110.738282 28.191406 192.648438 128.585937 192.648438 248.101562zm0 0" fill="#6db581"/><path d="m410.027344 324.960938c-12.414063-12.453126-23.90625-25.910157-34.199219-40.039063-7.199219-9.863281-14.011719-20.363281-20.238281-31.210937-29.363282-51.210938-44.878906-109.683594-44.878906-169.074219 0-26.152344 2.925781-51.859375 8.640624-76.738281-13.363281-3.40625-27.144531-5.757813-41.261718-6.957032-6.101563 27.269532-9.175782 55.253906-9.175782 83.695313 0 66.675781 17.429688 132.324219 50.417969 189.867187 6.988281 12.183594 14.648438 23.980469 22.734375 35.058594 11.527344 15.828125 24.429688 30.9375 38.359375 44.90625 23.082031 23.167969 48.878907 43.175781 76.894531 59.6875 8.609376-10.953125 16.351563-22.625 23.113282-34.910156-25.695313-14.910156-49.308594-33.113282-70.40625-54.285156zm0 0" fill="#f2efea"/><path d="m382.117188 449.578125v29.246094c-14.898438 8.453125-30.730469 15.453125-47.300782 20.804687-24.828125 8.035156-51.316406 12.371094-78.816406 12.371094-22.882812 0-45.066406-3-66.171875-8.640625-3.828125-1.015625-7.609375-2.121094-11.359375-3.3125-.429688-.136719-.855469-.273437-1.285156-.417969-5.988282-1.925781-11.882813-4.078125-17.660156-6.4375-10.230469-4.160156-20.125-8.964844-29.644532-14.367187v-29.246094c0-20.03125 6.199219-38.621094 16.773438-53.949219 12.796875-18.578125 32.035156-32.371094 54.5-38.171875 1.546875-.394531 3.105468-.75 4.671875-1.074219 3.730469-.761718 7.53125-1.304687 11.410156-1.621093 2.570313-.207031 5.160156-.3125 7.785156-.3125h61.949219c6.679688 0 13.1875.679687 19.46875 1.984375.617188.125 1.222656.261718 1.828125.398437.855469.199219 1.714844.40625 2.570313.625 22.453124 5.800781 41.691406 19.59375 54.511718 38.171875 10.574219 15.328125 16.769532 33.917969 16.769532 53.949219zm0 0" fill="#0c85a5"/><path d="m382.117188 449.578125v29.246094c-37.222657 21.117187-80.261719 33.175781-126.121094 33.175781-27.03125 0-53.070313-4.191406-77.53125-11.953125v-50.46875c0-52.539063 42.601562-95.128906 95.148437-95.128906h13.355469c52.554688 0 95.148438 42.589843 95.148438 95.128906zm0 0" fill="#1da2dd"/><path d="m310.835938 357.457031v2.320313l-25.570313 50.167968c-5.640625 11.0625-16.863281 17.949219-29.277344 17.949219-12.433593 0-23.65625-6.886719-29.289062-17.972656l-25.546875-50.144531v-2.320313c1.546875-.394531 3.105468-.75 4.671875-1.074219 3.730469-.761718 7.53125-1.304687 11.410156-1.621093 2.570313-.207031 5.160156-.3125 7.785156-.3125h61.949219c6.679688 0 13.1875.679687 19.46875 1.984375.617188.125 1.222656.261718 1.828125.398437.855469.199219 1.714844.40625 2.570313.625zm0 0" fill="#ffd833"/><path d="m225.019531 354.449219h48.585938c-24.167969 0-46.234375 9.007812-63.015625 23.855469l-9.4375-18.527344v-2.320313c1.546875-.394531 3.105468-.75 4.671875-1.074219 3.730469-.761718 7.53125-1.304687 11.410156-1.621093 2.570313-.207031 5.160156-.3125 7.785156-.3125zm0 0" fill="#e8c018"/><path d="m289.9375 352.390625v2.371094l-23.289062 45.695312c-4.441407 8.714844-16.886719 8.714844-21.316407 0l-23.28125-45.695312v-3.019531c0-15.253907 10.050781-28.148438 23.90625-32.421876 3.324219-1.035156 6.875-1.566406 10.554688-1.515624 18.652343.28125 33.425781 15.933593 33.425781 34.585937zm0 0" fill="#eaa27f"/><path d="m177.183594 449.578125v50.050781c-5.988282-1.925781-11.882813-4.078125-17.660156-6.4375-10.230469-4.160156-20.125-8.964844-29.644532-14.367187v-29.246094c0-20.03125 6.199219-38.621094 16.773438-53.949219zm0 0" fill="#e8c018"/><path d="m382.117188 449.578125v29.246094c-14.898438 8.453125-30.730469 15.453125-47.300782 20.804687v-50.050781l30.53125-53.949219c10.574219 15.328125 16.769532 33.917969 16.769532 53.949219zm0 0" fill="#ffd833"/><path d="m162.882812 249.535156c0 15.714844-11.480468 28.742188-26.511718 31.160156-1.640625.265626-3.332032.40625-5.054688.40625-17.4375 0-31.566406-14.128906-31.566406-31.566406s14.128906-31.566406 31.566406-31.566406c1.722656 0 3.414063.140625 5.054688.40625 15.03125 2.417969 26.511718 15.449219 26.511718 31.160156zm0 0" fill="#f6ba97"/><path d="m162.882812 249.535156c0 15.714844-11.480468 28.742188-26.511718 31.160156-2.730469-9.925781-4.1875-20.375-4.1875-31.160156s1.457031-21.230468 4.1875-31.160156c15.03125 2.417969 26.511718 15.449219 26.511718 31.160156zm0 0" fill="#eaa27f"/><path d="m142.597656 249.535156c0 6.230469-5.050781 11.28125-11.28125 11.28125-6.230468 0-11.28125-5.050781-11.28125-11.28125 0-6.230468 5.050782-11.28125 11.28125-11.28125 6.230469 0 11.28125 5.050782 11.28125 11.28125zm0 0" fill="#eaa27f"/><path d="m349.097656 249.535156c0 15.714844 11.480469 28.742188 26.511719 31.160156 1.640625.265626 3.332031.40625 5.054687.40625 17.4375 0 31.566407-14.128906 31.566407-31.566406s-14.128907-31.566406-31.566407-31.566406c-1.722656 0-3.414062.140625-5.054687.40625-15.03125 2.417969-26.511719 15.449219-26.511719 31.160156zm0 0" fill="#f6ba97"/><path d="m349.097656 249.535156c0 15.714844 11.480469 28.742188 26.511719 31.160156 2.730469-9.925781 4.1875-20.375 4.1875-31.160156s-1.457031-21.230468-4.1875-31.160156c-15.03125 2.417969-26.511719 15.449219-26.511719 31.160156zm0 0" fill="#eaa27f"/><path d="m373.433594 188.039062v44.722657c0 58.441406-42.695313 106.925781-98.597656 115.921875-.1875.03125-.386719.0625-.574219.09375-5.945313.949218-12.046875 1.421875-18.277344 1.421875-64.855469 0-117.433594-52.582031-117.433594-117.4375v-44.722657c0-13.65625 2.328125-26.777343 6.632813-38.972656 16.0625-45.703125 59.613281-78.472656 110.800781-78.472656h.011719c6.21875 0 12.328125.480469 18.285156 1.421875 56.175781 8.777344 99.152344 57.386719 99.152344 116.023437zm0 0" fill="#eaa27f"/><path d="m391.945312 249.535156c0 6.230469-5.050781 11.28125-11.28125 11.28125-6.230468 0-11.28125-5.050781-11.28125-11.28125 0-6.230468 5.050782-11.28125 11.28125-11.28125 6.230469 0 11.28125 5.050782 11.28125 11.28125zm0 0" fill="#eaa27f"/><path d="m373.433594 188.039062v44.722657c0 58.441406-42.695313 106.925781-98.597656 115.921875-.1875.03125-.386719.0625-.574219.09375-56.175781-8.777344-99.140625-57.386719-99.140625-116.015625v-44.722657c0-58.636718 42.976562-107.246093 99.160156-116.023437 56.175781 8.777344 99.152344 57.386719 99.152344 116.023437zm0 0" fill="#f6ba97"/><path d="m255.988281 301.050781c-9.835937 0-19.667969-2.464843-28.632812-7.390625-2.527344-1.390625-3.449219-4.566406-2.0625-7.09375 1.390625-2.53125 4.570312-3.453125 7.097656-2.0625 14.773437 8.125 32.417969 8.121094 47.195313 0 2.527343-1.390625 5.703124-.46875 7.09375 2.0625 1.390624 2.527344.46875 5.703125-2.058594 7.09375-8.964844 4.925782-18.796875 7.390625-28.632813 7.390625zm0 0" fill="#eaa27f"/><path d="m269.308594 259.46875h-26.644532c-3.171874 0-5.746093-2.574219-5.746093-5.75 0-3.171875 2.574219-5.746094 5.746093-5.746094h26.644532c3.175781 0 5.75 2.574219 5.75 5.746094 0 3.175781-2.574219 5.75-5.75 5.75zm0 0" fill="#eaa27f"/><path d="m230.980469 225.921875c0 7.359375-5.964844 13.324219-13.324219 13.324219-7.355469 0-13.320312-5.964844-13.320312-13.324219 0-7.355469 5.964843-13.320313 13.320312-13.320313 7.359375 0 13.324219 5.964844 13.324219 13.320313zm0 0" fill="#2f373b"/><path d="m307.648438 225.921875c0 7.359375-5.964844 13.324219-13.324219 13.324219-7.355469 0-13.320313-5.964844-13.320313-13.324219 0-7.355469 5.964844-13.320313 13.320313-13.320313 7.359375 0 13.324219 5.964844 13.324219 13.320313zm0 0" fill="#2f373b"/><path d="m228.265625 223.570312c0 3.15625-2.558594 5.710938-5.710937 5.710938-3.152344 0-5.707032-2.554688-5.707032-5.710938 0-3.152343 2.554688-5.707031 5.707032-5.707031 3.152343 0 5.710937 2.554688 5.710937 5.707031zm0 0" fill="#fff"/><path d="m305.585938 223.570312c0 3.15625-2.554688 5.710938-5.707032 5.710938s-5.710937-2.554688-5.710937-5.710938c0-3.152343 2.558593-5.707031 5.710937-5.707031s5.707032 2.554688 5.707032 5.707031zm0 0" fill="#fff"/><path d="m370.90625 224.121094-2.402344-69.832032c-73.507812 24.898438-122.472656 36.65625-153.527344 31.347657 43.53125-8.316407 77.332032-37.34375 78.105469-38.015625-.910156.378906-50.53125 20.636718-81.40625 26.773437-14.484375 2.871094-29.183593-4.609375-34.984375-18.191406-.042968-.074219-.074218-.160156-.105468-.230469 0 0-3.625 62.398438-40.214844 62.398438 0 0-44.941406-152.261719 32.902344-129.273438 0 0 22.515624-20.679687 56.132812-32.433594.125-.042968.25-.082031.386719-.136718.363281-.132813.742187-.257813 1.117187-.375.394532-.125.773438-.25 1.128906-.375 35.546876-11.722656 82.765626-12.945313 128.792969 29.664062 91.429688 84.636719 14.074219 138.679688 14.074219 138.679688zm0 0" fill="#2f373b"/><path d="m211.675781 174.394531c-14.480469 2.871094-29.183593-4.609375-34.984375-18.191406-.039062-.074219-.070312-.160156-.101562-.230469 0 0-3.628906 62.398438-40.21875 62.398438 0 0-44.941406-152.261719 32.902344-129.273438 0 0 22.519531-20.679687 56.132812-32.433594-46.132812 16.800782-33.972656 117.730469-13.730469 117.730469zm0 0" fill="#151a1c"/><path d="m177.183594 472.226562v27.410157c-16.574219-5.359375-32.402344-12.359375-47.304688-20.8125v-6.597657zm0 0" fill="#eaa27f"/><path d="m382.117188 472.226562v6.597657c-14.898438 8.453125-30.730469 15.453125-47.300782 20.8125v-27.410157zm0 0" fill="#f6ba97"/><path d="m289.9375 354.761719-23.289062 45.695312c-4.441407 8.714844-16.886719 8.714844-21.316407 0v-32.027343s29.183594 1.757812 44.605469-13.667969zm0 0" fill="#f6ba97"/><path d="m307.546875 465.273438 18.109375-31.367188h-36.214844zm0 0" fill="#ffd833"/><path d="m214.609375 459.984375c0 16.761719-3.855469 32.601563-10.730469 46.707031-22.496094-4.648437-43.90625-12.246094-63.8125-22.382812-24.28125-12.359375-46.339844-28.484375-65.386718-47.59375-15.871094-15.925782-29.664063-33.929688-40.929688-53.574219 13.636719-13.152344 30.773438-22.714844 49.882812-27.144531 7.785157-1.808594 15.894532-2.757813 24.230469-2.757813 9.027344 0 17.796875 1.117188 26.164063 3.226563 27.199218 6.835937 50.238281 24.097656 64.628906 47.304687 8.964844 14.460938 14.566406 31.230469 15.726562 49.222657.15625 2.3125.226563 4.640624.226563 6.992187zm0 0" fill="#f2efea"/><path d="m83.769531 355.964844c-9.5625 7.699218-17.761719 17.019531-24.199219 27.542968-4.398437 7.1875-7.972656 14.941407-10.585937 23.125-5.496094-7.523437-10.574219-15.371093-15.234375-23.492187 13.636719-13.152344 30.773438-22.714844 49.882812-27.144531.042969-.011719.09375-.019532.136719-.03125zm0 0" fill="#d8d4ce"/><g fill="#2f373b"><path d="m104.96875 370.679688h7.726562v50.148437h-7.726562zm0 0"/><path d="m191.011719 428.914062 2.386719 7.351563-47.9375 15.578125-2.390626-7.351562zm0 0"/><path d="m152.773438 445.230469-12.707032 39.078125c-24.28125-12.359375-46.339844-28.484375-65.386718-47.59375l33.183593-24.117188zm0 0"/><path d="m214.386719 452.988281-25.851563-19.21875 10.121094-30c8.960938 14.460938 14.570312 31.230469 15.730469 49.21875zm0 0"/><path d="m134.035156 356.46875-24.882812 18.078125-25.523438-18.546875c7.785156-1.808594 15.902344-2.757812 24.238282-2.757812 9.027343 0 17.792968 1.117187 26.167968 3.226562zm0 0"/></g><path d="m86.234375 366.90625c-.007813 6.820312-2.601563 13.644531-7.804687 18.847656l-21.035157 21.035156c-1.609375 1.609376-3.375 2.96875-5.253906 4.074219-6.707031-8.808593-12.851563-18.066406-18.390625-27.722656-3.449219-6.007813-6.65625-12.171875-9.613281-18.472656l16.613281-16.601563c10.398438-10.398437 27.273438-10.398437 37.679688 0 2.476562 2.484375 4.367187 5.328125 5.664062 8.378906 1.429688 3.324219 2.140625 6.894532 2.140625 10.460938zm0 0" fill="#eaa27f"/><path d="m86.234375 366.90625c-.007813 6.820312-2.601563 13.644531-7.804687 18.847656l-21.035157 21.035156c-1.609375 1.609376-3.375 2.96875-5.253906 4.074219-6.707031-8.808593-12.851563-18.066406-18.390625-27.722656l21.035156-21.03125c7.917969-7.921875 19.589844-9.8125 29.308594-5.664063 1.429688 3.324219 2.140625 6.894532 2.140625 10.460938zm0 0" fill="#f6ba97"/></svg>