<svg id="Filled" height="512" viewBox="0 0 512 512" width="512" xmlns="http://www.w3.org/2000/svg"><path d="m488 424h-288l-80-48 24-40 88 8 56-48h32l40 40h80l24-40h24z" fill="#2d85cc"/><path d="m323.76 299.76-67.76 60.24-24-16 56-48h32z" fill="#266fab"/><path d="m336 24v232l-16 40 40 40h80l24-40v-272z" fill="#f7cca9"/><path d="m464 88v208l-24 40h-80l-40-40 16-40v-168z" fill="#e9eef2"/><circle cx="160" cy="176" fill="#e9eef2" r="136"/><path d="m336 88h128v32h-128z" fill="#eb423f"/><g fill="#d0d2d4"><path d="m456 456h32v32h-32z"/><path d="m376 456h32v32h-32z"/><path d="m296 456h32v32h-32z"/><path d="m216 456h32v32h-32z"/><path d="m141.578 437.578h28.844v28.844h-28.844z" transform="matrix(.555 -.832 .832 .555 -306.62 331.075)"/><path d="m93.578 405.578h28.844v28.844h-28.844z" transform="matrix(.555 -.832 .832 .555 -301.369 276.887)"/></g><path d="m488 456h-304l-80-56 16-24 80 48h288z" fill="#e9eef2"/><path d="m64 144-39.75 23.85a135.411 135.411 0 0 1 31.79-79.55z" fill="#4f5659"/><path d="m44.6 248h51.4v48.03a136.716 136.716 0 0 1 -51.4-48.03z" fill="#4f5659"/><path d="m160 40a136.228 136.228 0 0 1 40.61 6.16l-40.61 33.84-40.61-33.84a136.228 136.228 0 0 1 40.61-6.16z" fill="#4f5659"/><path d="m224 248h51.4a136.716 136.716 0 0 1 -51.4 48.03z" fill="#4f5659"/><path d="m295.75 167.85-39.75-23.85 7.96-55.7a135.411 135.411 0 0 1 31.79 79.55z" fill="#4f5659"/><path d="m160 128-48 32 16 56h64l16-56z" fill="#4f5659"/><path d="m488 288h-16v-264a8 8 0 0 0 -8-8h-128a8 8 0 0 0 -8 8v230.459l-13.416 33.541h-26.584a8 8 0 0 0 -5.206 1.926l-53.435 45.8-84.634-7.694a8 8 0 0 0 -7.585 3.851l-55.8 87.678a8 8 0 0 0 2.218 11.094l24 16a8 8 0 0 0 11.094-2.218l11.1-16.646 10.526 7.368-10.935 16.4a8 8 0 0 0 2.218 11.094l24 16a8 8 0 0 0 11.094-2.218l10.37-15.555 2.386 1.671a8 8 0 0 0 4.589 1.449h24v24a8 8 0 0 0 8 8h32a8 8 0 0 0 8-8v-24h32v24a8 8 0 0 0 8 8h32a8 8 0 0 0 8-8v-24h32v24a8 8 0 0 0 8 8h32a8 8 0 0 0 8-8v-24h32v24a8 8 0 0 0 8 8h32a8 8 0 0 0 8-8v-192a8 8 0 0 0 -8-8zm-32-176h-112v-16h112zm0-80v48h-112v-48zm-112.572 226.971a8 8 0 0 0 .572-2.971v-128h112v165.784l-20.529 34.216h-72.157l-33.927-33.927zm-52.469 45.029h16.893l-52.51 45.946-10.118-6.746zm-142.683 40.422 80.977 7.361 22.309 14.873a8 8 0 0 0 9.706-.635l62.632-54.805 30.441 30.441a8 8 0 0 0 5.659 2.343h80a8 8 0 0 0 6.86-3.884l21.669-36.116h11.471v112h-277.784l-71.24-42.744zm-38.5 84.484-10.687-7.125 7.023-10.534 10.525 7.368zm48 32-10.687-7.125 6.3-9.443 10.526 7.368zm-42.787-62.975 7.431-11.147 73.459 44.076a8 8 0 0 0 4.121 1.14h280v16h-293.478zm125.011 82.069h-16v-16h16zm80 0h-16v-16h16zm80 0h-16v-16h16zm64 0v-16h16v16z"/><path d="m304 168c0-79.4-64.6-144-144-144s-144 64.6-144 144 64.6 144 144 144 144-64.6 144-144zm-200 115.082v-39.768l27.314-27.314h57.372l27.314 27.314v39.768a127.84 127.84 0 0 1 -112 0zm56-153.467 38.7 25.8-12.734 44.585h-51.932l-12.734-44.583zm72 144.159v-25.774h27.841a129.08 129.08 0 0 1 -27.841 25.774zm38.817-41.774h-43.5l-26.328-26.328 13.547-47.417 40.506-13.5 32.908 19.745q.048 1.745.05 3.5a127.215 127.215 0 0 1 -17.183 64zm-1.747-130.919a127.193 127.193 0 0 1 16.775 43.5l-21.174-12.7zm-13.563-18.2-6.728 47.094-39.6 13.2-41.179-27.456v-39.873l35.353-28.283a128.447 128.447 0 0 1 52.154 35.317zm-71.216-40.559-24.291 19.433-24.291-19.433a128.218 128.218 0 0 1 48.582 0zm-67.644 5.241 35.353 28.283v39.873l-41.182 27.454-39.6-13.2-6.725-47.093a128.447 128.447 0 0 1 52.154-35.317zm-61.318 84.31-21.174 12.7a127.193 127.193 0 0 1 16.775-43.5zm-23.279 32.627 32.911-19.747 40.506 13.5 13.547 47.417-26.328 26.33h-43.5a127.215 127.215 0 0 1 -17.186-64q0-1.756.05-3.5zm28.109 83.5h27.841v25.774a129.08 129.08 0 0 1 -27.841-25.774z"/></svg>