<?xml version="1.0" encoding="utf-8"?>
<svg version="1.1" id="Layer_1" xmlns="http://www.w3.org/2000/svg" xmlns:xlink="http://www.w3.org/1999/xlink" x="0px" y="0px" viewBox="0 0 315 327.2" enable-background="new 0 0 315 327.2" xml:space="preserve">
<g>
	<path fill="#ffffff" d="M314.8,163.5C311.4-4.2,88.7-66.6,3,90.4c3.8,2.7,9,6.4,12.8,9.2c-6.6,13.8-10.9,27.8-13.3,41.8
		C0.8,150.6,0,160,0,169.7c0,87,70.5,157.5,157.5,157.5S315,256.8,315,169.8C315,167.7,314.9,165.6,314.8,163.5z M38.8,191.6
		C36.7,208.7,38,214,38,216l-3.8,1.4c-1.4-2.8-5.1-12.7-6.7-26C23.4,140.7,58,95,110.6,86.5c48.3-7.1,94.4,22.9,105.2,64.8l-3.8,1.4
		c-1.1-1.2-3.1-4.6-10.4-12C143.4,82.2,52,109,38.8,191.6z M188.7,220c-7.8,11.2-20.7,18.5-35.3,18.5c-23.7,0-43-19.2-43-43
		c0-22.7,17.6-41.2,39.8-42.8l0,0c13.9-0.6,26.8,6.9,32.9,19.1c6.6,13.1,4.2,29.3-6.1,40.2C181,214.6,184.8,217.3,188.7,220z
		 M278.3,221.6c-22.7,51.6-69.5,78.6-119.4,78c-95.8-4.8-123.7-115.4-59.7-155.3l2.8,2.8c-1.1,1.4-4.8,4.4-10.8,16.2
		c-7,14.2-9.1,28.4-8.3,37.3c5,77.3,113.2,93.1,150.5,16.6c47.4-104.9-78.3-211.4-190-130l-2.6-2.6c29.4-46.1,86.7-66.7,141.6-52.9
		C266.2,52.6,311.2,140,278.3,221.6z"/>
</g>
</svg>
